<svg xmlns="http://www.w3.org/2000/svg" width="2000" height="20" viewBox="0 0 2000 20">
  <defs>
    <style>
      .cls-1 {
        fill: #fff;
        fill-rule: evenodd;
      }
    </style>
  </defs>
  <path id="Эллипсы" class="cls-1" d="M10,80A10,10,0,1,1,0,90,10,10,0,0,1,10,80Zm20,0A10,10,0,1,1,20,90,10,10,0,0,1,30,80Zm20,0A10,10,0,1,1,40,90,10,10,0,0,1,50,80Zm20,0A10,10,0,1,1,60,90,10,10,0,0,1,70,80Zm20,0A10,10,0,1,1,80,90,10,10,0,0,1,90,80Zm20,0a10,10,0,1,1-10,10A10,10,0,0,1,110,80Zm20,0a10,10,0,1,1-10,10A10,10,0,0,1,130,80Zm20,0a10,10,0,1,1-10,10A10,10,0,0,1,150,80Zm20,0a10,10,0,1,1-10,10A10,10,0,0,1,170,80Zm20,0a10,10,0,1,1-10,10A10,10,0,0,1,190,80Zm20,0a10,10,0,1,1-10,10A10,10,0,0,1,210,80Zm20,0a10,10,0,1,1-10,10A10,10,0,0,1,230,80Zm20,0a10,10,0,1,1-10,10A10,10,0,0,1,250,80Zm20,0a10,10,0,1,1-10,10A10,10,0,0,1,270,80Zm20,0a10,10,0,1,1-10,10A10,10,0,0,1,290,80Zm20,0a10,10,0,1,1-10,10A10,10,0,0,1,310,80Zm20,0a10,10,0,1,1-10,10A10,10,0,0,1,330,80Zm20,0a10,10,0,1,1-10,10A10,10,0,0,1,350,80Zm20,0a10,10,0,1,1-10,10A10,10,0,0,1,370,80Zm20,0a10,10,0,1,1-10,10A10,10,0,0,1,390,80Zm20,0a10,10,0,1,1-10,10A10,10,0,0,1,410,80Zm20,0a10,10,0,1,1-10,10A10,10,0,0,1,430,80Zm20,0a10,10,0,1,1-10,10A10,10,0,0,1,450,80Zm20,0a10,10,0,1,1-10,10A10,10,0,0,1,470,80Zm20,0a10,10,0,1,1-10,10A10,10,0,0,1,490,80Zm20,0a10,10,0,1,1-10,10A10,10,0,0,1,510,80Zm20,0a10,10,0,1,1-10,10A10,10,0,0,1,530,80Zm20,0a10,10,0,1,1-10,10A10,10,0,0,1,550,80Zm20,0a10,10,0,1,1-10,10A10,10,0,0,1,570,80Zm20,0a10,10,0,1,1-10,10A10,10,0,0,1,590,80Zm20,0a10,10,0,1,1-10,10A10,10,0,0,1,610,80Zm20,0a10,10,0,1,1-10,10A10,10,0,0,1,630,80Zm20,0a10,10,0,1,1-10,10A10,10,0,0,1,650,80Zm20,0a10,10,0,1,1-10,10A10,10,0,0,1,670,80Zm20,0a10,10,0,1,1-10,10A10,10,0,0,1,690,80Zm20,0a10,10,0,1,1-10,10A10,10,0,0,1,710,80Zm20,0a10,10,0,1,1-10,10A10,10,0,0,1,730,80Zm20,0a10,10,0,1,1-10,10A10,10,0,0,1,750,80Zm20,0a10,10,0,1,1-10,10A10,10,0,0,1,770,80Zm20,0a10,10,0,1,1-10,10A10,10,0,0,1,790,80Zm20,0a10,10,0,1,1-10,10A10,10,0,0,1,810,80Zm20,0a10,10,0,1,1-10,10A10,10,0,0,1,830,80Zm20,0a10,10,0,1,1-10,10A10,10,0,0,1,850,80Zm20,0a10,10,0,1,1-10,10A10,10,0,0,1,870,80Zm20,0a10,10,0,1,1-10,10A10,10,0,0,1,890,80Zm20,0a10,10,0,1,1-10,10A10,10,0,0,1,910,80Zm20,0a10,10,0,1,1-10,10A10,10,0,0,1,930,80Zm20,0a10,10,0,1,1-10,10A10,10,0,0,1,950,80Zm20,0a10,10,0,1,1-10,10A10,10,0,0,1,970,80Zm20,0a10,10,0,1,1-10,10A10,10,0,0,1,990,80Zm20,0a10,10,0,1,1-10,10A10,10,0,0,1,1010,80Zm20,0a10,10,0,1,1-10,10A10,10,0,0,1,1030,80Zm20,0a10,10,0,1,1-10,10A10,10,0,0,1,1050,80Zm20,0a10,10,0,1,1-10,10A10,10,0,0,1,1070,80Zm20,0a10,10,0,1,1-10,10A10,10,0,0,1,1090,80Zm20,0a10,10,0,1,1-10,10A10,10,0,0,1,1110,80Zm20,0a10,10,0,1,1-10,10A10,10,0,0,1,1130,80Zm20,0a10,10,0,1,1-10,10A10,10,0,0,1,1150,80Zm20,0a10,10,0,1,1-10,10A10,10,0,0,1,1170,80Zm20,0a10,10,0,1,1-10,10A10,10,0,0,1,1190,80Zm20,0a10,10,0,1,1-10,10A10,10,0,0,1,1210,80Zm20,0a10,10,0,1,1-10,10A10,10,0,0,1,1230,80Zm20,0a10,10,0,1,1-10,10A10,10,0,0,1,1250,80Zm20,0a10,10,0,1,1-10,10A10,10,0,0,1,1270,80Zm20,0a10,10,0,1,1-10,10A10,10,0,0,1,1290,80Zm20,0a10,10,0,1,1-10,10A10,10,0,0,1,1310,80Zm20,0a10,10,0,1,1-10,10A10,10,0,0,1,1330,80Zm20,0a10,10,0,1,1-10,10A10,10,0,0,1,1350,80Zm20,0a10,10,0,1,1-10,10A10,10,0,0,1,1370,80Zm20,0a10,10,0,1,1-10,10A10,10,0,0,1,1390,80Zm20,0a10,10,0,1,1-10,10A10,10,0,0,1,1410,80Zm20,0a10,10,0,1,1-10,10A10,10,0,0,1,1430,80Zm20,0a10,10,0,1,1-10,10A10,10,0,0,1,1450,80Zm20,0a10,10,0,1,1-10,10A10,10,0,0,1,1470,80Zm20,0a10,10,0,1,1-10,10A10,10,0,0,1,1490,80Zm20,0a10,10,0,1,1-10,10A10,10,0,0,1,1510,80Zm20,0a10,10,0,1,1-10,10A10,10,0,0,1,1530,80Zm20,0a10,10,0,1,1-10,10A10,10,0,0,1,1550,80Zm20,0a10,10,0,1,1-10,10A10,10,0,0,1,1570,80Zm20,0a10,10,0,1,1-10,10A10,10,0,0,1,1590,80Zm20,0a10,10,0,1,1-10,10A10,10,0,0,1,1610,80Zm20,0a10,10,0,1,1-10,10A10,10,0,0,1,1630,80Zm20,0a10,10,0,1,1-10,10A10,10,0,0,1,1650,80Zm20,0a10,10,0,1,1-10,10A10,10,0,0,1,1670,80Zm20,0a10,10,0,1,1-10,10A10,10,0,0,1,1690,80Zm20,0a10,10,0,1,1-10,10A10,10,0,0,1,1710,80Zm20,0a10,10,0,1,1-10,10A10,10,0,0,1,1730,80Zm20,0a10,10,0,1,1-10,10A10,10,0,0,1,1750,80Zm20,0a10,10,0,1,1-10,10A10,10,0,0,1,1770,80Zm20,0a10,10,0,1,1-10,10A10,10,0,0,1,1790,80Zm20,0a10,10,0,1,1-10,10A10,10,0,0,1,1810,80Zm20,0a10,10,0,1,1-10,10A10,10,0,0,1,1830,80Zm20,0a10,10,0,1,1-10,10A10,10,0,0,1,1850,80Zm20,0a10,10,0,1,1-10,10A10,10,0,0,1,1870,80Zm20,0a10,10,0,1,1-10,10A10,10,0,0,1,1890,80Zm20,0a10,10,0,1,1-10,10A10,10,0,0,1,1910,80Zm20,0a10,10,0,1,1-10,10A10,10,0,0,1,1930,80Zm20,0a10,10,0,1,1-10,10A10,10,0,0,1,1950,80Zm20,0a10,10,0,1,1-10,10A10,10,0,0,1,1970,80Zm20,0a10,10,0,1,1-10,10A10,10,0,0,1,1990,80Z" transform="translate(0 -80)"/>
</svg>
