<svg xmlns="http://www.w3.org/2000/svg" width="2000" height="20" viewBox="0 0 2000 20">
  <defs>
    <style>
      .cls-1 {
        fill: #faf3f5;
        fill-rule: evenodd;
      }
    </style>
  </defs>
  <path id="Эллипсы" class="cls-1" d="M110.055,5553a10,10,0,1,1-10.005,10A10,10,0,0,1,110.055,5553Zm20.01,0a10,10,0,1,1-10,10A10,10,0,0,1,130.065,5553Zm20.01,0a10,10,0,1,1-10,10A10,10,0,0,1,150.075,5553Zm20.01,0a10,10,0,1,1-10,10A10,10,0,0,1,170.085,5553Zm20.01,0a10,10,0,1,1-10,10A10,10,0,0,1,190.1,5553Zm20.01,0a10,10,0,1,1-10,10A10,10,0,0,1,210.105,5553Zm20.01,0a10,10,0,1,1-10,10A10,10,0,0,1,230.115,5553Zm20.01,0a10,10,0,1,1-10,10A10,10,0,0,1,250.125,5553Zm20.01,0a10,10,0,1,1-10,10A10,10,0,0,1,270.135,5553Zm20.01,0a10,10,0,1,1-10,10A10,10,0,0,1,290.145,5553ZM10,5553a10,10,0,1,1-10,10A10,10,0,0,1,10,5553Zm20.01,0a10,10,0,1,1-10.005,10A10,10,0,0,1,30.015,5553Zm20.01,0a10,10,0,1,1-10.005,10A10,10,0,0,1,50.025,5553Zm20.01,0a10,10,0,1,1-10,10A10,10,0,0,1,70.035,5553Zm20.01,0a10,10,0,1,1-10,10A10,10,0,0,1,90.045,5553Zm320.16,0a10,10,0,1,1-10,10A10,10,0,0,1,410.205,5553Zm20.01,0a10,10,0,1,1-10,10A10,10,0,0,1,430.215,5553Zm20.01,0a10,10,0,1,1-10,10A10,10,0,0,1,450.225,5553Zm20.01,0a10,10,0,1,1-10,10A10,10,0,0,1,470.235,5553Zm20.01,0a10,10,0,1,1-10,10A10,10,0,0,1,490.245,5553Zm20.01,0a10,10,0,1,1-10,10A10,10,0,0,1,510.255,5553Zm20.01,0a10,10,0,1,1-10,10A10,10,0,0,1,530.265,5553Zm20.01,0a10,10,0,1,1-10,10A10,10,0,0,1,550.275,5553Zm20.01,0a10,10,0,1,1-10,10A10,10,0,0,1,570.285,5553Zm20.01,0a10,10,0,1,1-10,10A10,10,0,0,1,590.295,5553Zm-280.14,0a10,10,0,1,1-10,10A10,10,0,0,1,310.155,5553Zm20.01,0a10,10,0,1,1-10,10A10,10,0,0,1,330.165,5553Zm20.01,0a10,10,0,1,1-10,10A10,10,0,0,1,350.175,5553Zm20.01,0a10,10,0,1,1-10,10A10,10,0,0,1,370.185,5553Zm20.01,0a10,10,0,1,1-10,10A10,10,0,0,1,390.2,5553Zm320.16,0a10,10,0,1,1-10,10A10,10,0,0,1,710.355,5553Zm20.01,0a10,10,0,1,1-10,10A10,10,0,0,1,730.365,5553Zm20.01,0a10,10,0,1,1-10,10A10,10,0,0,1,750.375,5553Zm20.01,0a10,10,0,1,1-10,10A10,10,0,0,1,770.385,5553Zm20.01,0a10,10,0,1,1-10,10A10,10,0,0,1,790.4,5553Zm20.01,0a10,10,0,1,1-10,10A10,10,0,0,1,810.405,5553Zm20.01,0a10,10,0,1,1-10,10A10,10,0,0,1,830.415,5553Zm20.01,0a10,10,0,1,1-10,10A10,10,0,0,1,850.425,5553Zm20.01,0a10,10,0,1,1-10,10A10,10,0,0,1,870.435,5553Zm20.01,0a10,10,0,1,1-10,10A10,10,0,0,1,890.445,5553Zm-280.14,0a10,10,0,1,1-10,10A10,10,0,0,1,610.3,5553Zm20.01,0a10,10,0,1,1-10.005,10A10,10,0,0,1,630.315,5553Zm20.01,0a10,10,0,1,1-10,10A10,10,0,0,1,650.325,5553Zm20.01,0a10,10,0,1,1-10,10A10,10,0,0,1,670.335,5553Zm20.01,0a10,10,0,1,1-10,10A10,10,0,0,1,690.345,5553Zm319.155,0a10,10,0,1,1-10,10A10.006,10.006,0,0,1,1009.5,5553Zm20.01,0a10,10,0,1,1-10,10A10.006,10.006,0,0,1,1029.51,5553Zm20.01,0a10,10,0,1,1-10,10A10.006,10.006,0,0,1,1049.52,5553Zm20.01,0a10,10,0,1,1-10,10A10.006,10.006,0,0,1,1069.53,5553Zm20.01,0a10,10,0,1,1-10,10A10.006,10.006,0,0,1,1089.54,5553Zm20.01,0a10,10,0,1,1-10,10A10.006,10.006,0,0,1,1109.55,5553Zm20.01,0a10,10,0,1,1-10,10A10.006,10.006,0,0,1,1129.56,5553Zm20.01,0a10,10,0,1,1-10,10A10.006,10.006,0,0,1,1149.57,5553Zm20.01,0a10,10,0,1,1-10,10A10.006,10.006,0,0,1,1169.58,5553Zm20.01,0a10,10,0,1,1-10,10A10.006,10.006,0,0,1,1189.59,5553Zm-280.135,0a10,10,0,1,1-10,10A10,10,0,0,1,909.455,5553Zm20.01,0a10,10,0,1,1-10,10A10,10,0,0,1,929.465,5553Zm20.01,0a10,10,0,1,1-10,10A10,10,0,0,1,949.475,5553Zm20.01,0a10,10,0,1,1-10,10A10,10,0,0,1,969.485,5553Zm20.01,0a10,10,0,1,1-10,10A10,10,0,0,1,989.5,5553Zm320.155,0a10,10,0,1,1-10,10A10.006,10.006,0,0,1,1309.65,5553Zm20.01,0a10,10,0,1,1-10,10A10.006,10.006,0,0,1,1329.66,5553Zm20.01,0a10,10,0,1,1-10,10A10.006,10.006,0,0,1,1349.67,5553Zm20.01,0a10,10,0,1,1-10,10A10.006,10.006,0,0,1,1369.68,5553Zm20.01,0a10,10,0,1,1-10,10A10.006,10.006,0,0,1,1389.69,5553Zm20.01,0a10,10,0,1,1-10,10A10.006,10.006,0,0,1,1409.7,5553Zm20.01,0a10,10,0,1,1-10,10A10.006,10.006,0,0,1,1429.71,5553Zm20.01,0a10,10,0,1,1-10,10A10.006,10.006,0,0,1,1449.72,5553Zm20.01,0a10,10,0,1,1-10,10A10.006,10.006,0,0,1,1469.73,5553Zm20.01,0a10,10,0,1,1-10,10A10.006,10.006,0,0,1,1489.74,5553Zm-280.14,0a10,10,0,1,1-10,10A10.006,10.006,0,0,1,1209.6,5553Zm20.01,0a10,10,0,1,1-10,10A10.006,10.006,0,0,1,1229.61,5553Zm20.01,0a10,10,0,1,1-10,10A10.006,10.006,0,0,1,1249.62,5553Zm20.01,0a10,10,0,1,1-10,10A10.006,10.006,0,0,1,1269.63,5553Zm20.01,0a10,10,0,1,1-10,10A10.006,10.006,0,0,1,1289.64,5553Zm320.16,0a10,10,0,1,1-10,10A10.006,10.006,0,0,1,1609.8,5553Zm20.01,0a10,10,0,1,1-10,10A10.006,10.006,0,0,1,1629.81,5553Zm20.01,0a10,10,0,1,1-10,10A10.006,10.006,0,0,1,1649.82,5553Zm20.01,0a10,10,0,1,1-10,10A10.006,10.006,0,0,1,1669.83,5553Zm20.01,0a10,10,0,1,1-10,10A10.006,10.006,0,0,1,1689.84,5553Zm20.01,0a10,10,0,1,1-10,10A10.006,10.006,0,0,1,1709.85,5553Zm20.01,0a10,10,0,1,1-10,10A10.006,10.006,0,0,1,1729.86,5553Zm20.01,0a10,10,0,1,1-10,10A10.006,10.006,0,0,1,1749.87,5553Zm20.01,0a10,10,0,1,1-10,10A10.006,10.006,0,0,1,1769.88,5553Zm20.01,0a10,10,0,1,1-10,10A10.006,10.006,0,0,1,1789.89,5553Zm-280.14,0a10,10,0,1,1-10,10A10.006,10.006,0,0,1,1509.75,5553Zm20.01,0a10,10,0,1,1-10,10A10.006,10.006,0,0,1,1529.76,5553Zm20.01,0a10,10,0,1,1-10,10A10.006,10.006,0,0,1,1549.77,5553Zm20.01,0a10,10,0,1,1-10,10A10.006,10.006,0,0,1,1569.78,5553Zm20.01,0a10,10,0,1,1-10,10A10.006,10.006,0,0,1,1589.79,5553Zm260.13,0a10,10,0,1,1-10,10A10.006,10.006,0,0,1,1849.92,5553Zm20.01,0a10,10,0,1,1-10,10A10.006,10.006,0,0,1,1869.93,5553Zm20.01,0a10,10,0,1,1-10,10A10.006,10.006,0,0,1,1889.94,5553Zm20.01,0a10,10,0,1,1-10,10A10.006,10.006,0,0,1,1909.95,5553Zm20.01,0a10,10,0,1,1-10,10A10.006,10.006,0,0,1,1929.96,5553Zm20.01,0a10,10,0,1,1-10,10A10.006,10.006,0,0,1,1949.97,5553Zm20.01,0a10,10,0,1,1-10,10A10.006,10.006,0,0,1,1969.98,5553Zm20.01,0a10,10,0,1,1-10,10A10.006,10.006,0,0,1,1989.99,5553Zm-180.09,0a10,10,0,1,1-10,10A10.006,10.006,0,0,1,1809.9,5553Zm20.01,0a10,10,0,1,1-10,10A10.006,10.006,0,0,1,1829.91,5553Z" transform="translate(0 -5553)"/>
</svg>
